<mxfile host="Electron" modified="2023-09-28T07:30:03.593Z" agent="Mozilla/5.0 (Windows NT 10.0; Win64; x64) AppleWebKit/537.36 (KHTML, like Gecko) draw.io/21.6.8 Chrome/114.0.5735.289 Electron/25.5.0 Safari/537.36" etag="RFaYgCJZFQ54HVA7BrUf" version="21.6.8" type="device">
  <diagram name="Страница — 1" id="ZpazmoxC9HM4W2dg3_H1">
    <mxGraphModel dx="346" dy="206" grid="1" gridSize="10" guides="1" tooltips="1" connect="1" arrows="1" fold="1" page="1" pageScale="1" pageWidth="827" pageHeight="1169" math="0" shadow="0">
      <root>
        <mxCell id="0" />
        <mxCell id="1" parent="0" />
        <mxCell id="saWoFOw5Jk7lsKhc-8Sj-1" value="Менеджер" style="shape=umlActor;verticalLabelPosition=bottom;verticalAlign=top;html=1;outlineConnect=0;" parent="1" vertex="1">
          <mxGeometry x="270" y="70" width="30" height="60" as="geometry" />
        </mxCell>
        <mxCell id="saWoFOw5Jk7lsKhc-8Sj-2" value="Кладовщик" style="shape=umlActor;verticalLabelPosition=bottom;verticalAlign=top;html=1;outlineConnect=0;" parent="1" vertex="1">
          <mxGeometry x="630" y="70" width="30" height="60" as="geometry" />
        </mxCell>
        <mxCell id="saWoFOw5Jk7lsKhc-8Sj-3" value="Бухгалтер" style="shape=umlActor;verticalLabelPosition=bottom;verticalAlign=top;html=1;outlineConnect=0;" parent="1" vertex="1">
          <mxGeometry x="460" y="70" width="30" height="60" as="geometry" />
        </mxCell>
        <mxCell id="saWoFOw5Jk7lsKhc-8Sj-4" value="" style="endArrow=none;dashed=1;html=1;dashPattern=1 3;strokeWidth=2;rounded=0;" parent="1" edge="1">
          <mxGeometry width="50" height="50" relative="1" as="geometry">
            <mxPoint x="285" y="190" as="sourcePoint" />
            <mxPoint x="284.8" y="110" as="targetPoint" />
          </mxGeometry>
        </mxCell>
        <mxCell id="saWoFOw5Jk7lsKhc-8Sj-5" value="" style="endArrow=none;dashed=1;html=1;dashPattern=1 3;strokeWidth=2;rounded=0;exitX=0.51;exitY=-0.047;exitDx=0;exitDy=0;exitPerimeter=0;" parent="1" source="saWoFOw5Jk7lsKhc-8Sj-29" edge="1">
          <mxGeometry width="50" height="50" relative="1" as="geometry">
            <mxPoint x="475" y="190" as="sourcePoint" />
            <mxPoint x="474.8" y="110" as="targetPoint" />
          </mxGeometry>
        </mxCell>
        <mxCell id="saWoFOw5Jk7lsKhc-8Sj-6" value="" style="endArrow=none;dashed=1;html=1;dashPattern=1 3;strokeWidth=2;rounded=0;exitX=0.5;exitY=0;exitDx=0;exitDy=0;" parent="1" source="saWoFOw5Jk7lsKhc-8Sj-54" edge="1">
          <mxGeometry width="50" height="50" relative="1" as="geometry">
            <mxPoint x="645" y="380" as="sourcePoint" />
            <mxPoint x="644.71" y="110" as="targetPoint" />
          </mxGeometry>
        </mxCell>
        <mxCell id="saWoFOw5Jk7lsKhc-8Sj-7" value="" style="rounded=0;whiteSpace=wrap;html=1;" parent="1" vertex="1">
          <mxGeometry x="275" y="190" width="20" height="90" as="geometry" />
        </mxCell>
        <mxCell id="saWoFOw5Jk7lsKhc-8Sj-9" value="Клиент" style="shape=umlActor;verticalLabelPosition=bottom;verticalAlign=top;html=1;outlineConnect=0;" parent="1" vertex="1">
          <mxGeometry x="130" y="70" width="30" height="60" as="geometry" />
        </mxCell>
        <mxCell id="saWoFOw5Jk7lsKhc-8Sj-12" value="" style="endArrow=none;dashed=1;html=1;dashPattern=1 3;strokeWidth=2;rounded=0;" parent="1" edge="1">
          <mxGeometry width="50" height="50" relative="1" as="geometry">
            <mxPoint x="145" y="190" as="sourcePoint" />
            <mxPoint x="144.8" y="110" as="targetPoint" />
          </mxGeometry>
        </mxCell>
        <mxCell id="saWoFOw5Jk7lsKhc-8Sj-13" value="" style="rounded=0;whiteSpace=wrap;html=1;" parent="1" vertex="1">
          <mxGeometry x="135" y="190" width="20" height="230" as="geometry" />
        </mxCell>
        <mxCell id="saWoFOw5Jk7lsKhc-8Sj-14" value="" style="endArrow=classic;html=1;rounded=0;entryX=0.033;entryY=0.104;entryDx=0;entryDy=0;entryPerimeter=0;exitX=1.033;exitY=0.042;exitDx=0;exitDy=0;exitPerimeter=0;" parent="1" source="saWoFOw5Jk7lsKhc-8Sj-13" target="saWoFOw5Jk7lsKhc-8Sj-7" edge="1">
          <mxGeometry width="50" height="50" relative="1" as="geometry">
            <mxPoint x="155" y="200" as="sourcePoint" />
            <mxPoint x="215" y="200" as="targetPoint" />
          </mxGeometry>
        </mxCell>
        <mxCell id="saWoFOw5Jk7lsKhc-8Sj-15" value="Сделать заказ" style="text;html=1;align=center;verticalAlign=middle;resizable=0;points=[];autosize=1;strokeColor=none;fillColor=none;" parent="1" vertex="1">
          <mxGeometry x="160" y="180" width="100" height="30" as="geometry" />
        </mxCell>
        <mxCell id="saWoFOw5Jk7lsKhc-8Sj-16" value="&lt;font style=&quot;font-size: 5px;&quot;&gt;Проверка наличия на складе&lt;/font&gt;" style="text;html=1;align=center;verticalAlign=middle;resizable=0;points=[];autosize=1;strokeColor=none;fillColor=none;" parent="1" vertex="1">
          <mxGeometry x="290" y="180" width="90" height="30" as="geometry" />
        </mxCell>
        <mxCell id="saWoFOw5Jk7lsKhc-8Sj-21" value="" style="endArrow=none;html=1;rounded=0;entryX=0.665;entryY=0.996;entryDx=0;entryDy=0;entryPerimeter=0;" parent="1" target="saWoFOw5Jk7lsKhc-8Sj-16" edge="1">
          <mxGeometry width="50" height="50" relative="1" as="geometry">
            <mxPoint x="295" y="210" as="sourcePoint" />
            <mxPoint x="340" y="210" as="targetPoint" />
          </mxGeometry>
        </mxCell>
        <mxCell id="saWoFOw5Jk7lsKhc-8Sj-22" value="" style="endArrow=none;html=1;rounded=0;" parent="1" edge="1">
          <mxGeometry width="50" height="50" relative="1" as="geometry">
            <mxPoint x="350" y="220" as="sourcePoint" />
            <mxPoint x="350" y="210" as="targetPoint" />
          </mxGeometry>
        </mxCell>
        <mxCell id="saWoFOw5Jk7lsKhc-8Sj-24" value="" style="endArrow=classic;html=1;rounded=0;entryX=0.9;entryY=0.33;entryDx=0;entryDy=0;entryPerimeter=0;" parent="1" target="saWoFOw5Jk7lsKhc-8Sj-7" edge="1">
          <mxGeometry width="50" height="50" relative="1" as="geometry">
            <mxPoint x="350" y="220" as="sourcePoint" />
            <mxPoint x="320" y="219.89" as="targetPoint" />
          </mxGeometry>
        </mxCell>
        <mxCell id="saWoFOw5Jk7lsKhc-8Sj-25" value="&lt;font style=&quot;font-size: 5px;&quot;&gt;Оформление заказа&lt;/font&gt;" style="text;html=1;align=center;verticalAlign=middle;resizable=0;points=[];autosize=1;strokeColor=none;fillColor=none;" parent="1" vertex="1">
          <mxGeometry x="300" y="220" width="70" height="30" as="geometry" />
        </mxCell>
        <mxCell id="saWoFOw5Jk7lsKhc-8Sj-26" value="" style="endArrow=none;html=1;rounded=0;" parent="1" edge="1">
          <mxGeometry width="50" height="50" relative="1" as="geometry">
            <mxPoint x="295" y="250" as="sourcePoint" />
            <mxPoint x="350" y="250" as="targetPoint" />
          </mxGeometry>
        </mxCell>
        <mxCell id="saWoFOw5Jk7lsKhc-8Sj-27" value="" style="endArrow=none;html=1;rounded=0;" parent="1" edge="1">
          <mxGeometry width="50" height="50" relative="1" as="geometry">
            <mxPoint x="350" y="260" as="sourcePoint" />
            <mxPoint x="350" y="250" as="targetPoint" />
          </mxGeometry>
        </mxCell>
        <mxCell id="saWoFOw5Jk7lsKhc-8Sj-28" value="" style="endArrow=classic;html=1;rounded=0;entryX=0.978;entryY=0.231;entryDx=0;entryDy=0;entryPerimeter=0;" parent="1" edge="1">
          <mxGeometry width="50" height="50" relative="1" as="geometry">
            <mxPoint x="350" y="260" as="sourcePoint" />
            <mxPoint x="295" y="260" as="targetPoint" />
          </mxGeometry>
        </mxCell>
        <mxCell id="saWoFOw5Jk7lsKhc-8Sj-29" value="" style="rounded=0;whiteSpace=wrap;html=1;" parent="1" vertex="1">
          <mxGeometry x="465" y="280" width="20" height="60" as="geometry" />
        </mxCell>
        <mxCell id="saWoFOw5Jk7lsKhc-8Sj-33" value="" style="endArrow=openThin;html=1;rounded=0;endFill=0;entryX=0;entryY=0;entryDx=0;entryDy=0;" parent="1" target="saWoFOw5Jk7lsKhc-8Sj-29" edge="1">
          <mxGeometry width="50" height="50" relative="1" as="geometry">
            <mxPoint x="295" y="280" as="sourcePoint" />
            <mxPoint x="335" y="280" as="targetPoint" />
          </mxGeometry>
        </mxCell>
        <mxCell id="saWoFOw5Jk7lsKhc-8Sj-34" value="&lt;font style=&quot;font-size: 8px;&quot;&gt;Оформление счёта&lt;/font&gt;" style="text;html=1;align=center;verticalAlign=middle;resizable=0;points=[];autosize=1;strokeColor=none;fillColor=none;" parent="1" vertex="1">
          <mxGeometry x="350" y="248" width="100" height="30" as="geometry" />
        </mxCell>
        <mxCell id="saWoFOw5Jk7lsKhc-8Sj-37" value="" style="endArrow=classic;html=1;rounded=0;exitX=1.017;exitY=0.438;exitDx=0;exitDy=0;exitPerimeter=0;entryX=-0.028;entryY=0.168;entryDx=0;entryDy=0;entryPerimeter=0;" parent="1" source="saWoFOw5Jk7lsKhc-8Sj-13" target="saWoFOw5Jk7lsKhc-8Sj-29" edge="1">
          <mxGeometry width="50" height="50" relative="1" as="geometry">
            <mxPoint x="160" y="290" as="sourcePoint" />
            <mxPoint x="460" y="290" as="targetPoint" />
          </mxGeometry>
        </mxCell>
        <mxCell id="saWoFOw5Jk7lsKhc-8Sj-38" value="Оплата заказа" style="text;html=1;align=center;verticalAlign=middle;resizable=0;points=[];autosize=1;strokeColor=none;fillColor=none;" parent="1" vertex="1">
          <mxGeometry x="170" y="260" width="100" height="30" as="geometry" />
        </mxCell>
        <mxCell id="saWoFOw5Jk7lsKhc-8Sj-39" value="" style="endArrow=none;dashed=1;html=1;dashPattern=1 3;strokeWidth=2;rounded=0;" parent="1" edge="1">
          <mxGeometry width="50" height="50" relative="1" as="geometry">
            <mxPoint x="284.8" y="310" as="sourcePoint" />
            <mxPoint x="284.8" y="280" as="targetPoint" />
          </mxGeometry>
        </mxCell>
        <mxCell id="saWoFOw5Jk7lsKhc-8Sj-40" value="Х" style="text;html=1;align=center;verticalAlign=middle;resizable=0;points=[];autosize=1;strokeColor=none;fillColor=none;" parent="1" vertex="1">
          <mxGeometry x="270" y="300" width="30" height="30" as="geometry" />
        </mxCell>
        <mxCell id="saWoFOw5Jk7lsKhc-8Sj-41" value="" style="endArrow=none;html=1;rounded=0;" parent="1" edge="1">
          <mxGeometry width="50" height="50" relative="1" as="geometry">
            <mxPoint x="485" y="300" as="sourcePoint" />
            <mxPoint x="520" y="300" as="targetPoint" />
          </mxGeometry>
        </mxCell>
        <mxCell id="saWoFOw5Jk7lsKhc-8Sj-42" value="" style="endArrow=none;html=1;rounded=0;" parent="1" edge="1">
          <mxGeometry width="50" height="50" relative="1" as="geometry">
            <mxPoint x="520" y="320" as="sourcePoint" />
            <mxPoint x="520" y="300" as="targetPoint" />
          </mxGeometry>
        </mxCell>
        <mxCell id="saWoFOw5Jk7lsKhc-8Sj-44" value="" style="endArrow=classic;html=1;rounded=0;entryX=1;entryY=0.672;entryDx=0;entryDy=0;entryPerimeter=0;" parent="1" edge="1" target="saWoFOw5Jk7lsKhc-8Sj-29">
          <mxGeometry width="50" height="50" relative="1" as="geometry">
            <mxPoint x="520" y="320" as="sourcePoint" />
            <mxPoint x="490" y="320" as="targetPoint" />
          </mxGeometry>
        </mxCell>
        <mxCell id="saWoFOw5Jk7lsKhc-8Sj-46" value="&lt;font style=&quot;font-size: 5px;&quot;&gt;Проверка оплаты&lt;/font&gt;" style="text;html=1;align=center;verticalAlign=middle;resizable=0;points=[];autosize=1;strokeColor=none;fillColor=none;" parent="1" vertex="1">
          <mxGeometry x="480" y="278" width="60" height="30" as="geometry" />
        </mxCell>
        <mxCell id="saWoFOw5Jk7lsKhc-8Sj-47" value="" style="endArrow=openThin;html=1;rounded=0;endFill=0;entryX=1.017;entryY=0.652;entryDx=0;entryDy=0;entryPerimeter=0;" parent="1" target="saWoFOw5Jk7lsKhc-8Sj-13" edge="1">
          <mxGeometry width="50" height="50" relative="1" as="geometry">
            <mxPoint x="465" y="340" as="sourcePoint" />
            <mxPoint x="160" y="340" as="targetPoint" />
          </mxGeometry>
        </mxCell>
        <mxCell id="saWoFOw5Jk7lsKhc-8Sj-48" value="&lt;font style=&quot;font-size: 7px;&quot;&gt;Оформление накладной, передача клиенту&lt;/font&gt;" style="text;html=1;strokeColor=none;fillColor=none;align=center;verticalAlign=middle;whiteSpace=wrap;rounded=0;" parent="1" vertex="1">
          <mxGeometry x="300" y="308" width="150" height="30" as="geometry" />
        </mxCell>
        <mxCell id="saWoFOw5Jk7lsKhc-8Sj-51" value="" style="endArrow=none;dashed=1;html=1;dashPattern=1 3;strokeWidth=2;rounded=0;" parent="1" edge="1">
          <mxGeometry width="50" height="50" relative="1" as="geometry">
            <mxPoint x="475" y="360" as="sourcePoint" />
            <mxPoint x="474.83" y="338" as="targetPoint" />
          </mxGeometry>
        </mxCell>
        <mxCell id="saWoFOw5Jk7lsKhc-8Sj-52" value="Х" style="text;html=1;strokeColor=none;fillColor=none;align=center;verticalAlign=middle;whiteSpace=wrap;rounded=0;" parent="1" vertex="1">
          <mxGeometry x="462.5" y="360" width="25" height="20" as="geometry" />
        </mxCell>
        <mxCell id="saWoFOw5Jk7lsKhc-8Sj-53" value="" style="endArrow=classic;html=1;rounded=0;entryX=0;entryY=0;entryDx=0;entryDy=0;exitX=1.067;exitY=0.871;exitDx=0;exitDy=0;exitPerimeter=0;" parent="1" source="saWoFOw5Jk7lsKhc-8Sj-13" target="saWoFOw5Jk7lsKhc-8Sj-54" edge="1">
          <mxGeometry width="50" height="50" relative="1" as="geometry">
            <mxPoint x="160" y="390" as="sourcePoint" />
            <mxPoint x="500" y="390" as="targetPoint" />
          </mxGeometry>
        </mxCell>
        <mxCell id="saWoFOw5Jk7lsKhc-8Sj-54" value="" style="rounded=0;whiteSpace=wrap;html=1;" parent="1" vertex="1">
          <mxGeometry x="635" y="390" width="20" height="30" as="geometry" />
        </mxCell>
        <mxCell id="saWoFOw5Jk7lsKhc-8Sj-55" value="&lt;font style=&quot;font-size: 8px;&quot;&gt;Передача накладной кладовщику&lt;/font&gt;" style="text;html=1;strokeColor=none;fillColor=none;align=center;verticalAlign=middle;whiteSpace=wrap;rounded=0;" parent="1" vertex="1">
          <mxGeometry x="275" y="355" width="170" height="30" as="geometry" />
        </mxCell>
        <mxCell id="saWoFOw5Jk7lsKhc-8Sj-56" value="" style="endArrow=openThin;html=1;rounded=0;endFill=0;entryX=1;entryY=1;entryDx=0;entryDy=0;" parent="1" target="saWoFOw5Jk7lsKhc-8Sj-13" edge="1">
          <mxGeometry width="50" height="50" relative="1" as="geometry">
            <mxPoint x="635" y="419.43" as="sourcePoint" />
            <mxPoint x="585" y="419.43" as="targetPoint" />
          </mxGeometry>
        </mxCell>
        <mxCell id="saWoFOw5Jk7lsKhc-8Sj-57" value="&lt;font style=&quot;font-size: 8px;&quot;&gt;Выдача товара&lt;/font&gt;" style="text;html=1;align=center;verticalAlign=middle;resizable=0;points=[];autosize=1;strokeColor=none;fillColor=none;" parent="1" vertex="1">
          <mxGeometry x="550" y="390" width="80" height="30" as="geometry" />
        </mxCell>
        <mxCell id="saWoFOw5Jk7lsKhc-8Sj-58" value="" style="endArrow=none;dashed=1;html=1;dashPattern=1 3;strokeWidth=2;rounded=0;" parent="1" edge="1">
          <mxGeometry width="50" height="50" relative="1" as="geometry">
            <mxPoint x="144.83" y="450" as="sourcePoint" />
            <mxPoint x="144.83" y="420" as="targetPoint" />
          </mxGeometry>
        </mxCell>
        <mxCell id="saWoFOw5Jk7lsKhc-8Sj-59" value="Х" style="text;html=1;strokeColor=none;fillColor=none;align=center;verticalAlign=middle;whiteSpace=wrap;rounded=0;" parent="1" vertex="1">
          <mxGeometry x="135" y="440" width="20" height="30" as="geometry" />
        </mxCell>
        <mxCell id="saWoFOw5Jk7lsKhc-8Sj-60" value="" style="endArrow=none;dashed=1;html=1;dashPattern=1 3;strokeWidth=2;rounded=0;" parent="1" edge="1">
          <mxGeometry width="50" height="50" relative="1" as="geometry">
            <mxPoint x="645" y="450" as="sourcePoint" />
            <mxPoint x="644.76" y="420" as="targetPoint" />
          </mxGeometry>
        </mxCell>
        <mxCell id="saWoFOw5Jk7lsKhc-8Sj-61" value="Х" style="text;html=1;strokeColor=none;fillColor=none;align=center;verticalAlign=middle;whiteSpace=wrap;rounded=0;" parent="1" vertex="1">
          <mxGeometry x="630" y="440" width="30" height="30" as="geometry" />
        </mxCell>
      </root>
    </mxGraphModel>
  </diagram>
</mxfile>
